# xmcd
#
# Track frame offsets:
#	182
#	17182
#	36560
#	61377
#	91907
#
# Disc length: 1481 seconds
# Revision: 0
# Processed by: cddbd v1.5.2PL0 Copyright (c) Steve Scherf et al.
# Submitted via: dBpowerAMP V12.0
#
DISCID=3d05c705
DTITLE=Jermaine Stewart - Set Me Free [Single]
DYEAR=1992
DGENRE=House
TTITLE0=Set Me Free [I Gotta Go Single Edit]
TTITLE1=Set Me Free [Album Version]
TTITLE2=Set Me Free [Don't Call Me I'll Call U R&B Version]
TTITLE3=Set Me Free [Classical Club Mix]
TTITLE4=Set Me Free [Ambient House Mix]
EXTD=
EXTT0=
EXTT1=
EXTT2=
EXTT3=
EXTT4=
PLAYORDER=
